<svg viewBox="0 0 32 32" xmlns="http://www.w3.org/2000/svg"><title>orxhestra</title><defs><mask id="fav-knockout" maskUnits="userSpaceOnUse" x="0" y="0" width="32" height="32"><rect x="0" y="0" width="32" height="32" fill="white"/><path d="M24.446 7.554 A19.907 19.907 0 0 0 7.554 24.446 A19.907 19.907 0 0 0 24.446 7.554 Z" fill="black" transform="translate(16 16) scale(1.08) translate(-16 -16)"/></mask></defs><rect width="32" height="32" rx="7.554" fill="#0F0E13"/><path d="M7.554 7.554 A19.907 19.907 0 0 0 24.446 24.446 A19.907 19.907 0 0 0 7.554 7.554 Z" fill="#3FE0A8" mask="url(#fav-knockout)"/><path d="M24.446 7.554 A19.907 19.907 0 0 0 7.554 24.446 A19.907 19.907 0 0 0 24.446 7.554 Z" fill="#F5F2EB"/></svg>