<svg viewBox="0 0 120 120" xmlns="http://www.w3.org/2000/svg"><title>orxhestra</title><defs><mask id="black-knockout" maskUnits="userSpaceOnUse" x="0" y="0" width="120" height="120"><rect x="0" y="0" width="120" height="120" fill="white"/><path d="M91.672 28.328 A74.651 74.651 0 0 0 28.328 91.672 A74.651 74.651 0 0 0 91.672 28.328 Z" fill="black" transform="translate(60 60) scale(1.08) translate(-60 -60)"/></mask></defs><path d="M28.328 28.328 A74.651 74.651 0 0 0 91.672 91.672 A74.651 74.651 0 0 0 28.328 28.328 Z" fill="#0F0E13" mask="url(#black-knockout)"/><path d="M91.672 28.328 A74.651 74.651 0 0 0 28.328 91.672 A74.651 74.651 0 0 0 91.672 28.328 Z" fill="#0F0E13"/></svg>