<svg viewBox="0 0 172.948 41.493" xmlns="http://www.w3.org/2000/svg"><title>orxhestra</title><defs><mask id="lockup-knockout" maskUnits="userSpaceOnUse" x="0" y="0" width="172.948" height="41.493"><rect x="0" y="0" width="172.948" height="41.493" fill="white"/><path d="M31.698 9.795 A25.812 25.812 0 0 0 9.795 31.698 A25.812 25.812 0 0 0 31.698 9.795 Z" fill="black" transform="translate(20.746 20.746) scale(1.08) translate(-20.746 -20.746)"/></mask></defs><path d="M9.795 9.795 A25.812 25.812 0 0 0 31.698 31.698 A25.812 25.812 0 0 0 9.795 9.795 Z" fill="#3FE0A8" mask="url(#lockup-knockout)"/><path d="M31.698 9.795 A25.812 25.812 0 0 0 9.795 31.698 A25.812 25.812 0 0 0 31.698 9.795 Z" fill="#F5F2EB"/><text x="41.493" y="30.826" font-family="Geist, Inter, -apple-system, sans-serif" font-weight="500" font-size="28" letter-spacing="-0.015em" fill="#F5F2EB">orxhestra</text></svg>