<svg viewBox="0 0 379.348 294.427" xmlns="http://www.w3.org/2000/svg"><title>orxhestra</title><defs><mask id="stacked-knockout" maskUnits="userSpaceOnUse" x="0" y="0" width="379.348" height="294.427"><rect x="0" y="0" width="379.348" height="294.427" fill="white"/><path d="M242.46 47.214 A124.419 124.419 0 0 0 136.888 152.786 A124.419 124.419 0 0 0 242.46 47.214 Z" fill="black" transform="translate(189.674 100) scale(1.08) translate(-189.674 -100)"/></mask></defs><path d="M136.888 47.214 A124.419 124.419 0 0 0 242.46 152.786 A124.419 124.419 0 0 0 136.888 47.214 Z" fill="#3FE0A8" mask="url(#stacked-knockout)"/><path d="M242.46 47.214 A124.419 124.419 0 0 0 136.888 152.786 A124.419 124.419 0 0 0 242.46 47.214 Z" fill="#F5F2EB"/><text x="47.214" y="247.214" font-family="Geist, Inter, -apple-system, sans-serif" font-weight="500" font-size="65.574" letter-spacing="-0.015em" fill="#F5F2EB">orxhestra</text></svg>